<svg width="282" height="36" viewBox="0 0 282 36" fill="none" xmlns="http://www.w3.org/2000/svg">
<path d="M28.6 30.985C28.18 31.375 27.55 31.78 26.71 32.2C25.9 32.59 24.97 32.95 23.92 33.28C22.9 33.61 21.85 33.865 20.77 34.045C19.69 34.255 18.67 34.36 17.71 34.36C14.2 34.36 11.155 33.67 8.575 32.29C5.995 30.88 4 28.975 2.59 26.575C1.18 24.175 0.475 21.445 0.475 18.385C0.475 15.505 0.925 12.985 1.825 10.825C2.725 8.635 3.955 6.805 5.515 5.335C7.075 3.835 8.86 2.71 10.87 1.96C12.91 1.21 15.055 0.834998 17.305 0.834998C19.315 0.834998 21.16 1.075 22.84 1.555C24.52 2.005 25.975 2.575 27.205 3.265L25.45 8.17C24.88 7.84 24.145 7.525 23.245 7.225C22.375 6.895 21.46 6.64 20.5 6.46C19.57 6.28 18.73 6.19 17.98 6.19C15.49 6.19 13.345 6.655 11.545 7.585C9.775 8.515 8.395 9.85 7.405 11.59C6.445 13.33 5.965 15.445 5.965 17.935C5.965 20.155 6.46 22.105 7.45 23.785C8.47 25.435 9.865 26.725 11.635 27.655C13.435 28.585 15.505 29.05 17.845 29.05C18.865 29.05 19.84 28.96 20.77 28.78C21.73 28.6 22.54 28.315 23.2 27.925V22.57H17.08V17.44H28.6V30.985ZM45.7837 1.195C48.2437 1.195 50.3737 1.615 52.1737 2.455C54.0037 3.295 55.4137 4.495 56.4037 6.055C57.4237 7.615 57.9337 9.52 57.9337 11.77C57.9337 13.09 57.7387 14.395 57.3487 15.685C56.9587 16.975 56.3137 18.145 55.4137 19.195C54.5437 20.245 53.3887 21.085 51.9487 21.715C50.5087 22.345 48.7237 22.66 46.5937 22.66H41.8237V34H36.5137V1.195H45.7837ZM46.5037 17.53C48.0637 17.53 49.2637 17.23 50.1037 16.63C50.9737 16 51.5737 15.25 51.9037 14.38C52.2637 13.51 52.4437 12.7 52.4437 11.95C52.4437 11.44 52.3537 10.87 52.1737 10.24C51.9937 9.61 51.6937 8.995 51.2737 8.395C50.8537 7.795 50.2687 7.3 49.5187 6.91C48.7987 6.52 47.8687 6.325 46.7287 6.325H41.8237V17.53H46.5037ZM52.2187 20.725L60.5887 34H54.3787L45.8737 20.86L52.2187 20.725ZM66.7041 1.195H88.4841V6.325H72.0141V14.965H86.6841V20.095H72.0141V28.87H89.1141V34H66.7041V1.195ZM96.3672 1.195H118.147V6.325H101.677V14.965H116.347V20.095H101.677V28.87H118.777V34H96.3672V1.195ZM154.875 35.215L129.72 10.915L131.295 11.545L131.385 34H126.03V0.0699996H126.255L151.005 24.37L149.79 23.965L149.7 1.195H155.01V35.215H154.875ZM208.218 1.195V34H202.908V20.095H186.843V34H181.533V1.195H186.843V15.01H202.908V1.195H208.218ZM217.217 1.195H222.527V34H217.217V1.195ZM231.543 1.195H236.853V28.87H252.963V34H231.543V1.195ZM259.888 1.195H265.198V28.87H281.308V34H259.888V1.195Z" fill="#34BB1E"/>
</svg>
